<?xml version="1.0" standalone="no"?>
<!DOCTYPE svg PUBLIC "-//W3C//DTD SVG 20010904//EN"
 "http://www.w3.org/TR/2001/REC-SVG-20010904/DTD/svg10.dtd">
<svg version="1.0" xmlns="http://www.w3.org/2000/svg"
 width="985.000000pt" height="426.000000pt" viewBox="0 0 985.000000 426.000000"
 preserveAspectRatio="xMidYMid meet">

<g transform="translate(0.000000,426.000000) scale(0.100000,-0.100000)"
fill="#000000" stroke="none">
<path d="M4430 3701 c-5 -11 -10 -34 -10 -51 0 -64 10 -70 120 -70 110 0 120
6 120 70 0 64 -10 70 -120 70 -88 0 -100 -2 -110 -19z m65 -76 c16 0 21 9 26
40 l6 40 2 -42 c1 -47 -9 -58 -45 -49 -21 6 -24 12 -23 49 l2 42 6 -40 c5 -31
10 -40 26 -40z m101 56 c13 12 24 18 24 12 0 -6 -7 -16 -15 -23 -14 -12 -13
-16 6 -37 13 -12 18 -23 12 -23 -6 0 -16 7 -23 15 -7 8 -16 15 -21 15 -5 0 -9
-7 -9 -15 0 -8 -4 -15 -10 -15 -12 0 -14 73 -2 84 4 4 8 -2 10 -14 l4 -22 24
23z"/>
<path d="M862 3628 c-7 -7 -12 -36 -12 -65 0 -41 4 -54 19 -63 12 -6 122 -10
286 -10 164 0 274 4 286 10 15 9 19 22 19 63 0 29 -5 58 -12 65 -17 17 -569
17 -586 0z m66 -26 c-14 -2 -29 -10 -32 -19 -9 -21 13 -45 36 -40 10 3 18 1
18 -4 0 -13 -44 -11 -58 3 -7 7 -12 20 -12 29 0 23 38 49 59 41 12 -5 9 -8
-11 -10z m202 -19 c0 15 5 27 10 27 6 0 10 -18 10 -40 0 -48 -12 -51 -42 -9
l-23 31 -6 -34 c-6 -29 -6 -27 -7 17 l-1 50 29 -35 29 -35 1 28z m-95 -9 c8
-20 15 -42 14 -48 0 -7 -2 -6 -6 2 -2 6 -18 12 -34 12 -16 0 -29 -6 -30 -12 0
-8 -2 -9 -5 -2 -6 14 24 84 36 84 5 0 17 -16 25 -36z m193 9 c5 -16 14 -37 18
-48 7 -18 6 -18 -9 -6 -10 8 -28 11 -46 8 l-29 -6 16 39 c20 47 36 51 50 13z
m96 21 c26 -10 20 -62 -8 -76 -39 -17 -56 -4 -56 42 0 36 3 40 24 40 13 0 31
-3 40 -6z m98 -34 l16 -39 -29 6 c-18 3 -36 0 -46 -8 -15 -12 -16 -12 -9 6 4
11 13 32 18 48 14 38 30 34 50 -13z"/>
<path d="M1000 3571 c0 -12 5 -21 10 -21 6 0 10 6 10 14 0 8 -4 18 -10 21 -5
3 -10 -3 -10 -14z"/>
<path d="M1196 3575 c-9 -23 -8 -25 9 -25 17 0 19 9 6 28 -7 11 -10 10 -15 -3z"/>
<path d="M1280 3570 c0 -27 3 -31 23 -28 16 2 22 10 22 28 0 18 -6 26 -22 28
-20 3 -23 -1 -23 -28z"/>
<path d="M1387 3583 c-12 -12 -7 -33 8 -33 17 0 19 9 7 28 -5 7 -11 9 -15 5z"/>
<path d="M5066 3624 c-10 -9 -16 -33 -16 -59 0 -76 -5 -75 305 -75 272 0 274
0 289 22 9 12 16 36 16 53 0 17 -7 41 -16 53 -15 22 -17 22 -289 22 -235 0
-276 -2 -289 -16z m85 -30 c11 -14 10 -18 -6 -30 -10 -8 -25 -14 -32 -14 -7 0
-13 -7 -13 -16 0 -8 -4 -13 -8 -10 -4 2 -6 23 -4 45 4 35 8 41 27 41 12 0 29
-7 36 -16z m97 4 c18 -18 15 -43 -8 -63 -17 -15 -24 -16 -45 -7 -43 20 -28 82
20 82 12 0 26 -5 33 -12z m42 -27 c0 -33 4 -40 23 -44 15 -4 12 -5 -8 -4 -28
2 -30 5 -33 45 -2 25 1 42 7 42 6 0 11 -18 11 -39z m121 1 l15 -37 -41 0 -41
0 15 37 c9 21 21 38 26 38 6 0 17 -17 26 -38z m71 7 l23 -31 6 34 c6 29 6 26
7 -17 l1 -50 -29 35 -30 34 0 -27 c0 -15 -4 -27 -10 -27 -5 0 -10 18 -10 40 0
48 12 51 42 9z m126 19 c21 -21 14 -57 -12 -70 -39 -17 -56 -4 -56 42 0 37 2
40 28 40 15 0 33 -5 40 -12z"/>
<path d="M5100 3585 c0 -8 9 -15 20 -15 11 0 20 7 20 15 0 8 -9 15 -20 15 -11
0 -20 -7 -20 -15z"/>
<path d="M5187 3594 c-23 -23 7 -69 37 -58 25 10 17 58 -9 62 -12 2 -24 0 -28
-4z"/>
<path d="M5376 3575 c-9 -23 -8 -25 9 -25 17 0 19 9 6 28 -7 11 -10 10 -15 -3z"/>
<path d="M5560 3566 c0 -30 3 -33 21 -29 26 7 35 29 19 48 -22 26 -40 18 -40
-19z"/>
<path d="M4612 3438 c-18 -18 -15 -103 4 -122 14 -14 78 -16 555 -16 353 0
547 4 560 10 15 9 19 22 19 63 0 29 -5 58 -12 65 -17 17 -1109 17 -1126 0z
m88 -18 c11 -7 7 -10 -18 -10 -30 0 -33 -2 -30 -27 2 -22 8 -28 26 -27 12 0
22 -3 22 -8 0 -4 -11 -8 -25 -8 -37 0 -55 42 -30 70 20 22 33 24 55 10z m250
0 c11 -7 7 -10 -18 -10 -30 0 -33 -2 -30 -27 2 -23 8 -28 30 -28 14 1 24 -3
22 -7 -10 -16 -53 -8 -64 12 -15 28 6 65 40 69 3 0 12 -4 20 -9z m278 -8 c-35
-4 -37 -22 -3 -22 14 0 25 -4 25 -10 0 -5 -11 -10 -25 -10 -14 0 -25 -4 -25
-10 0 -5 11 -10 25 -10 14 0 25 -4 25 -10 0 -5 -13 -10 -30 -10 -29 0 -30 1
-30 48 l0 49 33 -6 c31 -5 31 -6 5 -9z m107 -17 c0 -14 -8 -21 -27 -23 -15 -2
-29 -11 -31 -20 -3 -9 -5 4 -6 29 l-1 46 33 -6 c23 -5 32 -12 32 -26z m282
-32 c-2 -16 -4 -5 -4 22 0 28 2 40 4 28 2 -13 2 -35 0 -50z m93 57 c11 -7 8
-10 -16 -10 -20 0 -34 -6 -38 -16 -8 -22 13 -47 36 -41 10 3 18 1 18 -4 0 -13
-44 -11 -58 3 -17 17 -15 44 4 62 18 18 33 20 54 6z m-944 -34 l-26 -35 27 -4
c22 -3 20 -4 -10 -6 -34 -1 -37 1 -28 17 5 10 18 25 27 33 16 13 15 15 -12 20
-27 6 -26 7 10 8 l38 1 -26 -34z m82 27 c-32 -5 -38 -23 -8 -23 11 0 20 -4 20
-10 0 -5 -9 -10 -20 -10 -11 0 -20 -4 -20 -10 0 -5 11 -10 25 -10 14 0 25 -5
25 -11 0 -6 -14 -9 -32 -7 -31 3 -33 6 -36 46 l-3 42 38 -1 c30 -2 32 -3 11
-6z m142 -8 c0 -8 9 -15 20 -15 11 0 20 7 20 15 0 8 5 15 10 15 6 0 10 -18 10
-40 0 -22 -4 -40 -10 -40 -5 0 -10 9 -10 20 0 13 -7 20 -20 20 -13 0 -20 -7
-20 -20 0 -11 -4 -20 -10 -20 -5 0 -10 18 -10 40 0 22 5 40 10 40 6 0 10 -7
10 -15z m176 0 c4 -8 1 -22 -5 -29 -8 -10 -9 -16 -1 -21 5 -3 10 -12 10 -18
-1 -7 -9 -2 -19 11 -22 26 -31 28 -31 7 0 -8 -4 -15 -10 -15 -5 0 -10 18 -10
40 0 38 2 40 30 40 18 0 33 -6 36 -15z m204 -20 c0 -28 4 -35 20 -35 16 0 20
7 20 35 0 19 5 35 10 35 11 0 13 -39 4 -64 -9 -22 -51 -20 -64 3 -13 25 -13
61 0 61 6 0 10 -16 10 -35z m145 -5 c0 -32 -3 -35 -32 -38 -32 -3 -33 -3 -33
38 0 41 1 41 33 38 29 -3 32 -6 32 -38z m63 -33 c24 -4 24 -4 -5 -6 -33 -1
-33 0 -31 42 l1 42 4 -37 c4 -31 8 -37 31 -41z"/>
<path d="M5280 3395 c0 -8 9 -15 20 -15 11 0 20 7 20 15 0 8 -9 15 -20 15 -11
0 -20 -7 -20 -15z"/>
<path d="M5120 3394 c0 -9 7 -14 17 -12 25 5 28 28 4 28 -12 0 -21 -6 -21 -16z"/>
<path d="M5470 3400 c0 -5 7 -10 15 -10 8 0 15 5 15 10 0 6 -7 10 -15 10 -8 0
-15 -4 -15 -10z"/>
<path d="M5470 3365 c0 -10 7 -15 18 -13 21 4 19 22 -2 26 -10 2 -16 -3 -16
-13z"/>
<path d="M3686 3338 c-22 -31 -20 -84 4 -108 19 -19 33 -20 294 -20 311 0 306
-1 306 75 0 76 6 75 -310 75 -277 0 -279 0 -294 -22z m260 -78 c13 0 24 -4 24
-10 0 -5 -13 -10 -30 -10 -30 0 -30 0 -28 53 1 50 2 50 5 10 4 -38 7 -43 29
-43z m194 43 c0 15 5 27 10 27 6 0 10 -21 10 -47 l-1 -48 -29 35 -30 34 0 -26
c0 -15 -4 -30 -10 -33 -6 -4 -10 14 -10 47 l1 53 29 -35 30 -34 0 27z m108 14
c30 -23 -5 -77 -50 -77 -15 0 -18 9 -18 49 0 47 1 48 28 43 15 -2 33 -9 40
-15z m-518 -27 c0 -22 -4 -40 -10 -40 -5 0 -10 18 -10 40 0 22 5 40 10 40 6 0
10 -18 10 -40z m83 27 c3 -8 1 -20 -4 -28 -5 -8 -6 -23 -3 -34 4 -18 3 -18
-12 3 -19 25 -34 29 -34 7 0 -8 -4 -15 -10 -15 -5 0 -10 18 -10 40 0 39 1 40
34 40 19 0 36 -6 39 -13z m55 6 c-34 -5 -36 -20 -5 -33 l22 -9 -22 0 c-31 -1
-29 -21 2 -21 14 0 25 -4 25 -10 0 -5 -13 -10 -30 -10 -29 0 -30 2 -30 45 0
44 0 45 33 44 30 -2 30 -2 5 -6z m178 -28 c18 -44 19 -42 -17 -37 -20 3 -34 0
-40 -9 -6 -10 -9 -10 -9 -2 0 19 33 83 42 83 5 0 16 -16 24 -35z"/>
<path d="M4190 3292 c0 -36 8 -44 32 -31 26 14 20 53 -9 57 -19 3 -23 -1 -23
-26z"/>
<path d="M3760 3305 c0 -8 9 -15 20 -15 11 0 20 7 20 15 0 8 -9 15 -20 15 -11
0 -20 -7 -20 -15z"/>
<path d="M4015 3300 c-8 -13 -1 -24 14 -19 6 3 7 10 2 18 -6 10 -10 10 -16 1z"/>
<path d="M4958 3189 c-27 -15 -25 -114 1 -129 13 -6 137 -10 335 -10 356 0
346 -2 346 75 0 77 10 75 -348 75 -197 0 -324 -4 -334 -11z m72 -28 c0 -5 -9
-7 -20 -4 -26 7 -26 -14 -1 -22 26 -8 33 -31 15 -46 -11 -9 -20 -9 -37 -1
l-22 12 24 -3 c13 -1 26 4 28 11 3 6 -2 12 -10 12 -19 0 -41 26 -32 40 8 12
55 14 55 1z m40 -26 c0 -28 4 -35 20 -35 11 0 20 -5 20 -11 0 -6 -12 -9 -27
-7 -25 3 -28 7 -31 46 -2 25 1 42 7 42 6 0 11 -16 11 -35z m135 -5 c0 -27 -5
-36 -20 -38 -19 -4 -19 -3 -1 10 23 18 14 58 -14 58 -29 0 -44 -35 -24 -54 8
-9 11 -16 5 -16 -19 0 -33 38 -21 61 9 15 19 19 43 17 29 -3 32 -6 32 -38z
m48 8 l14 -33 17 33 c10 19 20 32 22 29 3 -3 -4 -24 -17 -48 l-21 -43 -13 25
c-17 32 -28 69 -21 69 3 0 12 -15 19 -32z m129 -8 l16 -39 -29 6 c-18 3 -36 0
-46 -8 -15 -12 -16 -12 -9 6 4 11 13 32 18 48 14 38 30 34 50 -13z m48 23 c0
-15 1 -15 18 0 25 23 39 22 19 -1 -15 -16 -15 -21 -2 -38 21 -28 18 -43 -4
-16 -22 26 -31 28 -31 7 0 -8 -4 -15 -10 -15 -5 0 -10 18 -10 40 0 22 5 40 10
40 6 0 10 -7 10 -17z m77 -45 c-2 -13 -4 -3 -4 22 0 25 2 35 4 23 2 -13 2 -33
0 -45z m86 27 c21 -45 22 -62 2 -45 -8 7 -26 10 -40 8 -14 -3 -25 -3 -25 -1 0
14 31 73 38 73 4 0 16 -16 25 -35z"/>
<path d="M5347 3143 c-12 -12 -7 -33 8 -33 17 0 19 9 7 28 -5 7 -11 9 -15 5z"/>
<path d="M5557 3136 c-6 -15 1 -26 15 -26 11 0 10 27 -1 34 -5 3 -11 0 -14 -8z"/>
<path d="M1070 3041 c-14 -28 -12 -84 4 -107 13 -17 29 -19 146 -22 163 -4
180 3 180 76 0 27 -5 53 -12 60 -8 8 -58 12 -160 12 -135 0 -148 -2 -158 -19z
m50 -47 c0 -28 4 -35 18 -32 11 2 19 16 23 43 4 30 7 36 13 23 11 -24 -7 -72
-28 -76 -9 -2 -23 2 -31 8 -17 14 -21 85 -5 75 6 -3 10 -22 10 -41z m125 35
c4 -6 0 -9 -10 -7 -29 5 -28 -19 0 -26 18 -5 25 -12 23 -24 -4 -20 -46 -29
-62 -12 -8 9 -4 10 15 5 33 -8 48 11 17 21 -30 9 -40 25 -26 41 13 16 34 17
43 2z m100 -41 c9 -22 11 -38 5 -38 -5 0 -10 5 -10 10 0 15 -48 12 -53 -2 -2
-7 -7 -11 -10 -8 -3 3 3 25 14 49 21 49 29 47 54 -11z"/>
<path d="M1305 3000 c-8 -13 -1 -24 14 -19 6 3 7 10 2 18 -6 10 -10 10 -16 1z"/>
<path d="M5730 3010 c-13 -13 -20 -33 -20 -59 0 -71 -2 -71 300 -71 l270 0 16
25 c20 31 13 94 -13 112 -12 10 -84 13 -275 13 -245 0 -259 -1 -278 -20z m88
-17 c-13 -3 -18 -14 -18 -38 0 -19 -4 -37 -10 -40 -6 -4 -10 10 -10 34 0 29
-5 41 -17 44 -10 3 2 5 27 5 25 0 37 -2 28 -5z m48 -64 c20 -16 32 -3 36 41 3
29 6 32 13 16 11 -25 -6 -70 -28 -74 -29 -6 -47 17 -45 57 1 36 1 36 5 4 2
-17 11 -37 19 -44z m129 24 c0 -37 -2 -40 -16 -27 -20 18 -29 18 -29 -1 0 -8
-4 -15 -10 -15 -11 0 -14 73 -3 84 4 4 19 6 33 4 22 -3 25 -7 25 -45z m45 25
l0 -22 16 22 c8 12 20 22 26 22 6 0 3 -9 -7 -20 -17 -19 -17 -21 -2 -38 26
-29 20 -38 -8 -12 l-25 23 0 -21 c0 -12 -4 -22 -10 -22 -5 0 -10 20 -10 45 0
25 5 45 10 45 6 0 10 -10 10 -22z m108 15 c-16 -2 -28 -11 -28 -19 0 -8 11
-15 28 -15 l27 -2 -27 -4 c-16 -2 -28 -10 -28 -18 0 -8 12 -16 28 -18 22 -3
20 -4 -10 -6 -38 -1 -38 -1 -38 37 0 47 5 52 44 51 30 -2 30 -2 4 -6z m62 -13
c11 -21 11 -21 30 2 22 27 26 12 5 -16 -8 -11 -15 -28 -15 -38 0 -10 -4 -18
-10 -18 -5 0 -10 10 -10 23 0 12 -7 33 -16 45 -8 12 -11 22 -5 22 6 0 15 -9
21 -20z"/>
<path d="M5950 2970 c0 -15 5 -20 18 -18 9 2 17 10 17 18 0 8 -8 16 -17 18
-13 2 -18 -3 -18 -18z"/>
<path d="M4816 2824 c-10 -9 -16 -33 -16 -59 0 -73 6 -75 206 -75 102 0 183 4
195 10 15 8 19 21 19 60 0 79 -3 80 -210 80 -149 0 -181 -3 -194 -16z m44 -59
c0 -25 -4 -45 -10 -45 -5 0 -10 20 -10 45 0 25 5 45 10 45 6 0 10 -20 10 -45z
m68 38 c-13 -3 -18 -16 -20 -46 l-1 -42 -4 42 c-3 29 -9 43 -21 46 -9 3 1 5
23 5 22 0 32 -2 23 -5z m87 -45 c9 -22 11 -38 5 -38 -5 0 -10 5 -10 10 0 15
-48 12 -53 -2 -2 -7 -7 -11 -9 -8 -3 3 3 25 14 49 20 49 28 47 53 -11z m45 7
c0 -27 4 -34 23 -38 16 -3 13 -5 -10 -6 -33 -1 -33 0 -33 45 0 27 4 43 10 39
6 -3 10 -21 10 -40z m78 24 l13 -20 21 23 20 23 -16 -27 c-9 -15 -16 -36 -16
-48 0 -11 -4 -20 -10 -20 -5 0 -10 9 -10 20 0 12 -7 32 -16 45 -9 14 -12 25
-8 25 5 0 15 -9 22 -21z"/>
<path d="M4976 2775 c-9 -23 -8 -25 9 -25 17 0 19 9 6 28 -7 11 -10 10 -15 -3z"/>
<path d="M5612 2804 c-20 -14 -23 -23 -20 -67 4 -77 2 -77 344 -77 321 0 349
4 359 51 10 46 -3 89 -32 100 -13 5 -160 9 -326 9 -260 0 -306 -2 -325 -16z
m66 -97 c21 -3 19 -4 -10 -6 -38 -1 -38 -1 -38 37 0 53 14 63 18 14 3 -36 7
-41 30 -45z m92 73 c0 -5 -11 -10 -25 -10 -34 0 -32 -20 3 -21 l27 -2 -27 -4
c-16 -2 -28 -10 -28 -18 0 -8 12 -16 28 -18 25 -4 25 -4 -5 -6 -33 -1 -33 0
-33 44 0 43 1 45 30 45 17 0 30 -4 30 -10z m76 -2 c5 -7 9 -26 9 -43 0 -26 -4
-30 -32 -33 -33 -3 -33 -3 -33 42 0 42 2 46 24 46 13 0 28 -6 32 -12z m98 -40
c8 -21 11 -38 5 -38 -5 0 -9 5 -9 10 0 15 -48 12 -53 -2 -2 -7 -7 -11 -10 -8
-3 3 3 25 14 49 21 48 29 47 53 -11z m68 20 l23 -33 6 35 c6 33 6 32 8 -12 0
-27 -2 -48 -6 -48 -5 0 -18 15 -30 33 l-23 32 0 -33 c0 -17 -4 -32 -10 -32 -5
0 -10 20 -10 45 0 53 10 57 42 13z m132 16 c30 -30 13 -74 -29 -74 -12 0 -26
5 -33 12 -7 7 -12 21 -12 33 0 42 44 59 74 29z m96 -16 c0 20 4 31 10 27 13
-8 13 -85 1 -85 -5 0 -20 15 -33 33 l-23 32 -6 -35 c-6 -32 -6 -30 -7 15 l-1
50 29 -35 30 -34 0 32z"/>
<path d="M5800 2766 c0 -10 9 -16 21 -16 24 0 21 23 -4 28 -10 2 -17 -3 -17
-12z"/>
<path d="M5800 2725 c0 -11 7 -15 23 -13 12 2 22 8 22 13 0 6 -10 11 -22 13
-16 2 -23 -2 -23 -13z"/>
<path d="M5906 2755 c-9 -23 -8 -25 9 -25 17 0 19 9 6 28 -7 11 -10 10 -15 -3z"/>
<path d="M6089 2764 c-16 -20 0 -49 27 -49 35 0 28 64 -7 65 -4 0 -12 -7 -20
-16z"/>
<path d="M3732 2768 c-7 -7 -12 -33 -12 -59 0 -81 -7 -79 380 -79 387 0 380
-2 380 79 0 26 -5 52 -12 59 -17 17 -719 17 -736 0z m87 -26 c12 -22 -3 -42
-31 -42 -10 0 -18 -7 -18 -15 0 -8 -4 -15 -10 -15 -11 0 -14 73 -3 83 13 14
53 6 62 -11z m95 2 c30 -30 13 -74 -29 -74 -60 0 -59 88 2 90 6 0 19 -7 27
-16z m176 6 c0 -5 -4 -10 -10 -10 -5 0 -10 -16 -10 -35 0 -19 -4 -35 -10 -35
-5 0 -10 14 -10 31 0 19 -7 37 -17 45 -16 12 -14 13 20 14 20 0 37 -4 37 -10z
m55 -65 c16 0 21 9 26 40 l7 40 -2 -45 c-1 -43 -2 -45 -31 -45 -29 0 -30 2
-31 45 l-2 45 7 -40 c5 -31 10 -40 26 -40z m131 64 c4 -7 0 -9 -12 -5 -27 8
-46 -8 -42 -35 2 -16 11 -25 26 -27 12 -2 22 1 22 7 0 6 -4 11 -10 11 -5 0
-10 5 -10 10 0 6 7 10 16 10 10 0 14 -7 12 -22 -6 -45 -78 -28 -78 18 0 33 60
59 76 33z m-316 -19 c0 -11 6 -20 14 -20 21 0 31 21 15 31 -11 7 -10 9 4 9 19
0 24 -34 7 -45 -8 -5 -7 -11 1 -21 7 -8 7 -14 1 -14 -5 0 -12 7 -16 15 -3 8
-10 15 -16 15 -5 0 -10 -7 -10 -15 0 -8 -4 -15 -10 -15 -5 0 -10 18 -10 40 0
22 5 40 10 40 6 0 10 -9 10 -20z m403 -15 c22 -45 21 -48 -3 -33 -16 10 -24
10 -40 0 -24 -15 -26 -3 -5 38 20 39 28 38 48 -5z m47 1 c0 -30 4 -35 28 -39
22 -3 20 -4 -10 -6 -38 -1 -38 -1 -38 39 0 22 5 40 10 40 6 0 10 -15 10 -34z"/>
<path d="M3770 2730 c0 -15 5 -20 18 -18 9 2 17 10 17 18 0 8 -8 16 -17 18
-13 2 -18 -3 -18 -18z"/>
<path d="M3860 2735 c-19 -23 -8 -50 20 -50 16 0 26 6 28 18 4 18 -14 47 -28
47 -4 0 -13 -7 -20 -15z"/>
<path d="M4326 2715 c-3 -9 0 -15 9 -15 16 0 20 16 6 24 -5 3 -11 -1 -15 -9z"/>
<path d="M5326 2614 c-10 -9 -16 -33 -16 -59 0 -75 0 -75 260 -75 259 0 260 0
260 74 0 75 -4 76 -263 76 -192 0 -228 -2 -241 -16z m92 -26 c7 -7 12 -26 12
-43 0 -28 -3 -31 -35 -33 -29 -2 -37 2 -47 23 -9 21 -8 28 7 45 20 23 45 26
63 8z m96 -28 c20 -51 20 -53 -4 -38 -16 10 -24 10 -40 0 -11 -7 -20 -8 -20
-2 0 15 33 80 41 80 4 0 14 -18 23 -40z m86 30 c0 -5 -4 -10 -10 -10 -5 0 -10
-16 -10 -35 0 -19 -4 -35 -10 -35 -5 0 -10 16 -10 35 0 19 -4 35 -10 35 -5 0
-10 5 -10 10 0 6 14 10 30 10 17 0 30 -4 30 -10z m74 -30 c20 -51 20 -53 -4
-38 -16 10 -24 10 -40 0 -11 -7 -20 -10 -20 -7 0 14 33 85 40 85 4 0 15 -18
24 -40z m96 25 c9 -11 10 -18 1 -29 -6 -7 -8 -22 -4 -32 6 -18 6 -18 -14 -1
-11 9 -22 17 -26 17 -3 0 -8 -8 -10 -17 -3 -10 -5 3 -6 30 -1 43 1 47 23 47
13 0 29 -7 36 -15z"/>
<path d="M5367 2584 c-13 -13 -7 -52 9 -58 23 -9 50 22 37 43 -11 18 -35 26
-46 15z"/>
<path d="M5476 2555 c-3 -9 0 -15 9 -15 16 0 20 16 6 24 -5 3 -11 -1 -15 -9z"/>
<path d="M5636 2555 c-3 -9 0 -15 9 -15 8 0 15 7 15 15 0 8 -4 15 -9 15 -5 0
-11 -7 -15 -15z"/>
<path d="M5720 2570 c0 -15 5 -20 18 -18 9 2 17 10 17 18 0 8 -8 16 -17 18
-13 2 -18 -3 -18 -18z"/>
<path d="M5566 2424 c-10 -9 -16 -33 -16 -59 0 -71 10 -75 170 -75 132 0 140
1 154 22 9 12 16 36 16 53 0 17 -7 41 -16 53 -14 21 -22 22 -154 22 -113 0
-142 -3 -154 -16z m49 -88 c18 -6 32 12 38 49 4 23 4 21 3 -9 0 -24 -7 -43
-18 -49 -26 -17 -48 8 -46 52 l1 36 4 -37 c2 -20 10 -39 18 -42z m130 38 c8
-20 15 -42 14 -48 0 -7 -2 -6 -6 2 -6 15 -45 16 -61 0 -9 -9 -12 -9 -12 0 0
18 33 82 42 82 4 0 15 -16 23 -36z m77 29 c-38 -5 -38 -24 -1 -34 23 -7 23 -7
-4 -8 -34 -1 -32 -22 4 -32 21 -6 21 -7 -8 -8 -32 -1 -33 0 -33 44 l0 45 38
-2 37 -1 -33 -4z"/>
<path d="M5715 2377 c-4 -10 -5 -21 -1 -24 10 -10 18 4 13 24 -4 17 -4 17 -12
0z"/>
<path d="M7460 2321 c-17 -33 -12 -89 10 -111 19 -19 33 -20 540 -20 516 0
520 0 541 21 17 17 20 30 16 66 -3 25 -11 49 -18 54 -8 5 -253 9 -546 9 -516
0 -533 -1 -543 -19z m88 -18 c-13 -3 -18 -15 -18 -39 0 -19 -4 -34 -10 -34 -5
0 -10 15 -10 34 0 24 -5 36 -17 39 -10 3 2 5 27 5 25 0 37 -2 28 -5z m57 -33
c17 0 25 7 28 23 2 12 4 0 4 -28 0 -27 -2 -40 -4 -27 -3 15 -11 22 -28 22 -17
0 -25 -7 -28 -22 -2 -13 -4 0 -4 27 0 28 2 40 4 28 3 -16 11 -23 28 -23z m103
33 c-34 -5 -38 -32 -5 -34 l22 -2 -22 -4 c-13 -2 -23 -11 -23 -18 0 -7 10 -16
23 -18 15 -4 12 -5 -8 -4 -28 2 -30 5 -33 45 l-3 42 38 -1 c30 -2 32 -3 11 -6z
m140 -16 c3 -13 -6 -22 -27 -30 -17 -6 -32 -18 -35 -27 -2 -8 -4 7 -5 33 l-1
48 32 -3 c22 -2 34 -9 36 -21z m32 3 c0 -13 7 -20 20 -20 13 0 20 7 20 20 0
11 5 20 10 20 6 0 10 -18 10 -40 0 -22 -4 -40 -10 -40 -5 0 -10 7 -10 15 0 8
-9 15 -20 15 -11 0 -20 -7 -20 -15 0 -8 -4 -15 -10 -15 -5 0 -10 18 -10 40 0
22 5 40 10 40 6 0 10 -9 10 -20z m87 -47 c-2 -16 -4 -5 -4 22 0 28 2 40 4 28
2 -13 2 -35 0 -50z m58 -14 c17 -7 16 -8 -7 -8 -27 -1 -28 1 -27 47 l2 47 6
-39 c4 -26 13 -42 26 -47z m42 14 c-2 -16 -4 -5 -4 22 0 28 2 40 4 28 2 -13 2
-35 0 -50z m91 41 c2 -16 -4 -23 -22 -28 -15 -3 -26 -11 -26 -16 0 -6 -4 -10
-10 -10 -5 0 -10 18 -10 41 0 39 1 40 33 37 24 -2 33 -8 35 -24z m86 9 c7 -18
-17 -43 -41 -43 -7 0 -13 -8 -13 -17 0 -10 -3 -13 -9 -7 -4 5 -6 26 -4 47 5
33 8 37 33 37 17 0 30 -7 34 -17z m23 -50 c-2 -16 -4 -5 -4 22 0 28 2 40 4 28
2 -13 2 -35 0 -50z m65 36 l23 -31 6 34 c6 29 6 26 7 -17 l1 -50 -29 35 -30
34 0 -27 c0 -15 -4 -27 -10 -27 -5 0 -10 18 -10 40 0 48 12 51 42 9z m106 24
c-34 -5 -38 -32 -5 -34 l22 -2 -22 -4 c-13 -2 -23 -11 -23 -18 0 -7 10 -16 23
-18 15 -4 12 -5 -8 -4 -28 2 -30 5 -33 45 l-3 42 38 -1 c30 -2 32 -3 11 -6z
m92 -2 c0 -5 -8 -7 -19 -4 -10 3 -22 0 -25 -6 -4 -6 4 -13 18 -17 30 -7 40
-28 20 -45 -11 -9 -20 -9 -37 -1 l-22 12 24 -3 c33 -3 38 19 6 27 -24 6 -33
25 -18 39 10 10 53 8 53 -2z"/>
<path d="M7790 2285 c0 -8 9 -15 20 -15 11 0 20 7 20 15 0 8 -9 15 -20 15 -11
0 -20 -7 -20 -15z"/>
<path d="M8110 2286 c0 -10 9 -16 21 -16 24 0 21 23 -4 28 -10 2 -17 -3 -17
-12z"/>
<path d="M8190 2285 c0 -8 9 -15 20 -15 11 0 20 7 20 15 0 8 -9 15 -20 15 -11
0 -20 -7 -20 -15z"/>
<path d="M6532 2308 c-7 -7 -12 -33 -12 -59 0 -74 12 -79 207 -79 150 0 165 2
183 20 22 22 27 78 10 111 -10 18 -23 19 -193 19 -129 0 -187 -4 -195 -12z
m38 -53 c0 -25 -4 -45 -10 -45 -5 0 -10 20 -10 45 0 25 5 45 10 45 6 0 10 -20
10 -45z m80 13 c0 18 5 32 10 32 6 0 10 -20 10 -45 0 -53 -10 -57 -42 -12
l-23 32 -6 -35 c-6 -32 -6 -30 -7 15 l-1 50 29 -35 30 -34 0 32z m100 12 c11
-11 20 -24 20 -29 0 -18 -32 -41 -56 -41 -22 0 -24 4 -24 45 0 38 3 45 20 45
11 0 29 -9 40 -20z m50 -25 c0 -25 -4 -45 -10 -45 -5 0 -10 20 -10 45 0 25 5
45 10 45 6 0 10 -20 10 -45z m84 -7 c8 -21 11 -38 5 -38 -5 0 -9 5 -9 10 0 15
-48 12 -53 -2 -2 -7 -7 -11 -10 -8 -3 3 3 25 14 49 21 48 29 47 53 -11z"/>
<path d="M6700 2250 c0 -27 3 -31 23 -28 16 2 22 10 22 28 0 18 -6 26 -22 28
-20 3 -23 -1 -23 -28z"/>
<path d="M6845 2260 c-8 -13 -1 -24 14 -19 6 3 7 10 2 18 -6 10 -10 10 -16 1z"/>
<path d="M9845 990 c0 -547 1 -771 2 -497 2 273 2 721 0 995 -1 273 -2 49 -2
-498z"/>
<path d="M7153 1960 c-20 -8 -23 -17 -23 -63 0 -29 5 -58 12 -65 17 -17 679
-17 696 0 14 14 16 97 2 118 -8 13 -58 15 -337 17 -183 1 -338 -2 -350 -7z
m36 -47 l12 -27 24 30 24 29 -1 -50 c0 -41 -2 -45 -7 -20 l-7 30 -13 -24 c-13
-24 -14 -24 -27 -6 -13 18 -14 18 -14 -3 0 -12 -4 -22 -10 -22 -5 0 -10 20
-10 45 0 51 11 58 29 18z m146 -20 c19 -45 19 -46 -5 -31 -16 10 -24 10 -40 0
-24 -15 -25 -4 -3 42 19 40 28 38 48 -11z m245 26 c6 13 14 20 17 17 3 -3 -1
-16 -10 -29 -8 -12 -17 -32 -20 -42 -5 -20 -5 -20 -6 0 -1 11 -8 29 -16 39 -8
11 -15 25 -15 30 0 6 9 0 19 -13 l19 -24 12 22z m96 10 c4 -7 0 -9 -14 -5 -30
10 -37 -12 -8 -26 37 -16 34 -48 -4 -48 -16 0 -30 4 -30 9 0 4 11 6 25 3 15
-2 25 0 25 7 0 6 -11 16 -25 21 -24 9 -32 29 -18 43 10 11 41 8 49 -4z m31
-56 c-2 -16 -4 -5 -4 22 0 28 2 40 4 28 2 -13 2 -35 0 -50z m88 20 c19 -45 19
-46 -5 -31 -16 10 -24 10 -40 0 -24 -15 -25 -4 -3 42 19 40 28 38 48 -11z
m-415 3 c0 -30 4 -35 28 -39 22 -3 20 -4 -10 -6 -38 -1 -38 -1 -38 39 0 22 5
40 10 40 6 0 10 -15 10 -34z m123 -1 c22 -45 21 -48 -3 -33 -16 10 -24 10 -40
0 -24 -15 -26 -3 -5 38 20 39 28 38 48 -5z"/>
<path d="M7296 1895 c-3 -9 0 -15 9 -15 16 0 20 16 6 24 -5 3 -11 -1 -15 -9z"/>
<path d="M7756 1895 c-3 -9 0 -15 9 -15 8 0 15 7 15 15 0 8 -4 15 -9 15 -5 0
-11 -7 -15 -15z"/>
<path d="M7466 1895 c-3 -9 0 -15 9 -15 16 0 20 16 6 24 -5 3 -11 -1 -15 -9z"/>
<path d="M6352 1908 c-7 -7 -12 -33 -12 -60 0 -81 -7 -79 384 -76 286 3 338 5
346 18 14 21 12 104 -2 118 -17 17 -699 17 -716 0z m73 -18 c3 -5 -3 -10 -14
-10 -27 0 -27 -13 1 -25 29 -13 33 -31 10 -44 -14 -7 -24 -7 -38 3 -17 13 -16
14 9 9 35 -7 36 14 2 27 -28 11 -31 20 -13 38 15 15 35 16 43 2z m122 -57 c-2
-16 -4 -5 -4 22 0 28 2 40 4 28 2 -13 2 -35 0 -50z m293 30 c0 15 5 27 10 27
6 0 10 -18 10 -40 0 -48 -11 -50 -42 -7 l-23 32 -6 -35 c-6 -32 -6 -30 -7 15
l-1 50 29 -35 30 -34 0 27z m58 -3 c4 0 13 9 20 21 7 12 16 19 18 16 3 -3 0
-14 -7 -25 -11 -18 -10 -24 5 -41 11 -12 14 -21 9 -21 -6 0 -16 7 -23 15 -16
20 -27 19 -33 -2 -3 -10 -5 5 -4 32 0 28 2 40 4 28 2 -13 7 -23 11 -23z m-378
11 c0 -11 -5 -23 -10 -26 -8 -5 -7 -11 1 -21 7 -8 7 -14 1 -14 -5 0 -12 7 -16
15 -3 8 -10 15 -16 15 -5 0 -10 -7 -10 -15 0 -8 -4 -15 -10 -15 -5 0 -10 18
-10 40 0 39 1 40 35 40 28 0 35 -4 35 -19z m128 -54 c24 -4 24 -4 -5 -6 -33
-1 -33 0 -31 42 l1 42 4 -37 c4 -31 8 -37 31 -41z m97 37 c8 -20 15 -37 15
-38 0 0 -18 -1 -40 -1 -22 0 -40 1 -40 1 0 13 33 74 40 74 5 0 17 -16 25 -36z
m287 -1 l14 -38 -41 0 -41 0 14 38 c8 20 20 37 27 37 7 0 19 -17 27 -37z"/>
<path d="M6470 1864 c0 -9 7 -14 17 -12 25 5 28 28 4 28 -12 0 -21 -6 -21 -16z"/>
<path d="M6710 1855 c0 -8 5 -15 10 -15 6 0 10 7 10 15 0 8 -4 15 -10 15 -5 0
-10 -7 -10 -15z"/>
<path d="M6996 1863 c-11 -11 -6 -23 9 -23 8 0 15 4 15 9 0 13 -16 22 -24 14z"/>
<path d="M6740 1680 c-19 -12 -21 -103 -2 -122 10 -10 92 -13 378 -13 313 0
366 2 374 15 14 21 12 104 -2 118 -15 15 -725 17 -748 2z m27 -77 c-2 -16 -4
-5 -4 22 0 28 2 40 4 28 2 -13 2 -35 0 -50z m46 15 c-3 -21 -9 -38 -14 -38
-10 0 -12 73 -2 84 13 13 20 -9 16 -46z m53 -35 c-6 -7 -45 37 -46 51 0 5 9 1
20 -9 20 -18 20 -17 22 16 1 29 2 27 5 -10 3 -23 2 -46 -1 -48z m78 77 c18 -6
26 -17 26 -33 0 -31 -18 -47 -52 -47 -27 0 -28 2 -28 45 0 49 7 53 54 35z
m120 -6 c19 -18 20 -28 6 -55 -20 -37 -80 -18 -80 26 0 42 44 59 74 29z m99
-14 c3 30 4 28 5 -12 1 -27 -1 -48 -5 -48 -5 0 -18 15 -30 33 l-23 32 0 -33
c0 -17 -4 -32 -10 -32 -11 0 -14 73 -3 84 4 4 20 -8 34 -26 l27 -33 5 35z
m162 21 c3 -5 -7 -11 -22 -13 l-28 -4 27 -11 c35 -16 41 -28 22 -47 -12 -12
-20 -13 -35 -6 -26 14 -24 18 6 12 15 -2 25 0 25 7 0 6 -11 16 -25 21 -38 15
-31 46 12 49 6 1 14 -3 18 -8z m45 -36 c0 -25 -4 -45 -10 -45 -5 0 -10 20 -10
45 0 25 5 45 10 45 6 0 10 -20 10 -45z m-132 28 c-34 -5 -37 -22 -5 -24 l22
-2 -22 -4 c-32 -6 -29 -31 5 -36 22 -3 20 -4 -10 -6 -38 -1 -38 -1 -38 39 0
40 0 40 38 39 30 -2 32 -3 10 -6z m215 -33 c8 -22 11 -40 6 -40 -5 0 -9 5 -9
10 0 15 -48 12 -53 -2 -2 -7 -7 -11 -10 -8 -9 9 24 80 38 80 6 0 19 -18 28
-40z"/>
<path d="M6910 1620 c0 -23 5 -30 19 -30 20 0 37 32 26 50 -3 5 -15 10 -26 10
-14 0 -19 -7 -19 -30z"/>
<path d="M7010 1645 c-19 -23 -8 -50 20 -50 16 0 26 6 28 18 4 18 -14 47 -28
47 -4 0 -13 -7 -20 -15z"/>
<path d="M7415 1630 c-8 -13 -1 -24 14 -19 6 3 7 10 2 18 -6 10 -10 10 -16 1z"/>
<path d="M7692 1648 c-18 -18 -15 -103 4 -122 13 -14 63 -16 388 -16 423 0
411 -2 411 73 0 81 21 77 -409 77 -284 0 -385 -3 -394 -12z m78 -27 c0 -5 -9
-7 -20 -4 -29 8 -25 -15 5 -29 15 -7 24 -18 23 -27 -4 -20 -46 -27 -62 -11 -8
9 -4 10 17 5 20 -6 27 -4 27 8 0 8 -11 18 -25 21 -24 6 -33 25 -18 39 10 10
53 8 53 -2z m40 -36 c0 -25 -4 -45 -10 -45 -5 0 -10 20 -10 45 0 25 5 45 10
45 6 0 10 -20 10 -45z m51 23 c24 -30 24 -46 0 -24 -19 17 -20 17 -24 -16 -3
-26 -4 -24 -5 15 -1 26 1 47 4 47 3 0 14 -10 25 -22z m49 -24 c0 -32 -4 -44
-12 -41 -7 2 -13 9 -12 15 1 7 2 26 3 42 2 48 21 34 21 -16z m84 38 c2 -4 -8
-8 -22 -7 -22 0 -28 -5 -30 -26 -2 -18 3 -29 14 -33 24 -9 44 12 24 24 -13 8
-12 10 3 10 19 0 24 -34 6 -45 -18 -11 -57 4 -64 25 -9 28 12 60 40 60 13 0
26 -4 29 -8z m89 -27 c22 -47 21 -58 -3 -43 -16 10 -24 10 -40 0 -11 -7 -20
-8 -20 -2 0 14 33 80 40 80 3 0 14 -16 23 -35z m97 20 c15 -19 -3 -45 -30 -45
-10 0 -21 -8 -23 -17 -3 -10 -5 3 -6 30 -1 43 1 47 23 47 13 0 29 -7 36 -15z
m98 3 c21 -21 14 -57 -14 -70 -31 -14 -57 -1 -62 31 -7 42 46 69 76 39z m87
-35 c0 -39 -1 -41 -18 -26 -16 15 -18 15 -32 -3 -13 -17 -14 -15 -15 29 l0 48
33 -3 c30 -3 32 -5 32 -45z m85 38 c0 -4 -11 -6 -25 -3 -18 3 -25 0 -25 -12 0
-10 9 -16 28 -17 23 -2 24 -2 5 -6 -32 -6 -29 -31 5 -36 22 -3 20 -4 -10 -6
l-38 -1 0 45 c0 43 1 45 30 45 17 0 30 -4 30 -9z"/>
<path d="M8046 1585 c-4 -10 1 -15 14 -15 13 0 18 5 14 15 -4 8 -10 15 -14 15
-4 0 -10 -7 -14 -15z"/>
<path d="M8132 1603 c2 -10 10 -18 18 -18 22 0 18 29 -3 33 -14 3 -18 -1 -15
-15z"/>
<path d="M8220 1605 c-17 -21 -2 -50 26 -50 14 0 19 7 19 30 0 34 -24 45 -45
20z"/>
<path d="M8320 1600 c0 -15 5 -20 18 -18 9 2 17 10 17 18 0 8 -8 16 -17 18
-13 2 -18 -3 -18 -18z"/>
<path d="M2998 1609 c-27 -15 -25 -114 1 -129 12 -6 109 -10 245 -10 255 0
256 0 256 75 0 75 0 75 -258 75 -136 0 -234 -5 -244 -11z m79 -38 c-2 -10 -1
-25 4 -33 11 -21 -13 -41 -43 -36 -19 2 -23 10 -26 46 l-3 42 37 0 c30 0 36
-3 31 -19z m90 3 c3 -8 1 -20 -5 -26 -8 -8 -8 -17 0 -32 11 -20 10 -20 -9 -3
-11 9 -25 17 -31 17 -6 0 -13 -8 -15 -17 -3 -10 -5 3 -6 30 -1 46 0 47 29 47
19 0 33 -6 37 -16z m73 -3 c5 -11 15 -32 21 -48 8 -23 8 -26 -2 -15 -7 6 -22
12 -34 12 -12 0 -27 -6 -34 -12 -8 -7 -12 -8 -10 -3 36 95 40 100 59 66z m104
7 c-4 -7 -16 -23 -27 -35 l-20 -23 26 0 c15 0 27 -4 27 -10 0 -5 -16 -10 -35
-10 -19 0 -35 3 -35 7 0 3 11 21 25 39 l25 33 -27 4 c-22 3 -20 4 10 6 28 1
36 -2 31 -11z m33 -55 c-2 -16 -4 -5 -4 22 0 28 2 40 4 28 2 -13 2 -35 0 -50z
m61 -16 c24 -4 24 -4 -5 -6 l-33 -1 2 48 1 47 4 -42 c4 -36 7 -42 31 -46z"/>
<path d="M3030 1565 c0 -10 7 -15 18 -13 21 4 19 22 -2 26 -10 2 -16 -3 -16
-13z"/>
<path d="M3030 1524 c0 -9 7 -14 17 -12 25 5 28 28 4 28 -12 0 -21 -6 -21 -16z"/>
<path d="M3120 1565 c0 -10 7 -15 18 -13 21 4 19 22 -2 26 -10 2 -16 -3 -16
-13z"/>
<path d="M3216 1555 c-9 -23 -8 -25 9 -25 17 0 19 9 6 28 -7 11 -10 10 -15 -3z"/>
<path d="M4194 1015 c-20 -31 -13 -94 13 -112 13 -10 129 -13 504 -13 430 0
489 2 503 16 19 19 22 104 4 122 -9 9 -136 12 -510 12 l-498 0 -16 -25z m69
-12 c-30 -6 -29 -17 3 -32 16 -7 24 -18 22 -28 -4 -22 -36 -29 -52 -13 -8 9
-6 11 11 6 31 -10 39 12 9 26 -36 16 -35 48 2 47 23 -2 24 -2 5 -6z m127 -12
c20 -38 -21 -82 -59 -62 -44 24 -31 81 19 81 19 0 33 -7 40 -19z m42 -18 c2
-26 8 -38 18 -38 10 0 16 12 18 38 4 44 22 50 22 8 0 -28 -22 -61 -40 -61 -18
0 -40 33 -40 61 0 42 18 36 22 -8z m136 30 c-13 -3 -18 -15 -18 -39 0 -19 -4
-34 -10 -34 -5 0 -10 15 -10 34 0 24 -5 36 -17 39 -10 3 2 5 27 5 25 0 37 -2
28 -5z m57 -33 c17 0 25 7 28 23 2 12 4 0 4 -28 0 -27 -2 -40 -4 -27 -3 15
-11 22 -28 22 -17 0 -25 -7 -28 -22 -2 -13 -4 0 -4 27 0 28 2 40 4 28 3 -16
11 -23 28 -23z m159 0 c19 -48 20 -58 4 -42 -16 16 -58 15 -59 0 0 -9 -2 -10
-5 -1 -6 15 22 83 34 83 6 0 17 -18 26 -40z m74 33 c-34 -5 -38 -32 -5 -34
l22 -2 -22 -4 c-15 -3 -23 -12 -23 -24 0 -11 -4 -17 -10 -14 -5 3 -10 24 -10
46 0 39 0 39 38 38 30 -2 32 -3 10 -6z m100 -6 c7 -8 7 -18 2 -27 -5 -8 -7
-24 -3 -35 l6 -20 -23 20 c-16 14 -24 16 -27 8 -10 -27 -23 -11 -23 27 0 37 2
40 29 40 16 0 33 -6 39 -13z m29 -54 c-2 -16 -4 -5 -4 22 0 28 2 40 4 28 2
-13 2 -35 0 -50z m93 59 c0 -4 -12 -8 -27 -7 -23 0 -28 -4 -28 -25 0 -20 6
-26 30 -30 24 -4 26 -7 13 -12 -37 -15 -67 19 -53 62 4 14 15 20 36 20 16 0
29 -4 29 -8z m84 -32 c19 -48 20 -58 4 -42 -16 16 -58 15 -59 0 0 -8 -2 -9 -5
-2 -6 14 24 84 35 84 5 0 16 -18 25 -40z"/>
<path d="M4324 986 c-10 -26 4 -48 28 -44 17 2 23 10 23 28 0 18 -6 26 -23 28
-13 2 -25 -3 -28 -12z"/>
<path d="M4750 971 c0 -12 5 -21 10 -21 6 0 10 6 10 14 0 8 -4 18 -10 21 -5 3
-10 -3 -10 -14z"/>
<path d="M4910 986 c0 -10 9 -16 21 -16 24 0 21 23 -4 28 -10 2 -17 -3 -17
-12z"/>
<path d="M5130 971 c0 -12 5 -21 10 -21 6 0 10 6 10 14 0 8 -4 18 -10 21 -5 3
-10 -3 -10 -14z"/>
<path d="M7566 874 c-10 -9 -16 -33 -16 -59 0 -76 -7 -75 402 -75 345 0 359 1
378 20 13 13 20 33 20 59 0 73 13 71 -400 71 -322 0 -371 -2 -384 -16z m89
-50 c8 -20 15 -42 14 -48 0 -7 -2 -6 -6 2 -6 15 -45 16 -61 0 -9 -9 -12 -9
-12 0 0 18 33 82 42 82 4 0 15 -16 23 -36z m57 -31 c17 -21 38 -3 38 33 0 19
5 34 10 34 16 0 12 -57 -6 -74 -33 -33 -65 -11 -63 44 2 33 2 34 6 5 3 -16 9
-35 15 -42z m128 58 c0 -5 -9 -7 -20 -4 -29 8 -25 -12 5 -25 29 -13 31 -24 10
-42 -12 -10 -21 -10 -38 -1 -21 11 -21 11 6 6 35 -7 37 17 2 33 -16 7 -23 17
-19 27 6 16 54 21 54 6z m78 2 c-13 -3 -18 -16 -20 -46 l-1 -42 -4 42 c-3 29
-9 43 -21 46 -9 3 1 5 23 5 22 0 32 -2 23 -5z m88 -41 c1 -41 0 -42 -19 -25
-15 13 -21 15 -24 6 -10 -27 -23 -11 -23 28 0 39 1 40 33 37 30 -3 32 -5 33
-46z m87 13 c20 -43 23 -65 5 -47 -16 16 -58 15 -59 0 0 -8 -2 -9 -5 -2 -6 13
23 84 34 84 5 0 16 -16 25 -35z m47 -4 c0 -33 4 -40 23 -44 15 -4 12 -5 -8 -4
-28 2 -30 5 -33 45 -2 25 1 42 7 42 6 0 11 -18 11 -39z m67 -28 c-2 -16 -4 -5
-4 22 0 28 2 40 4 28 2 -13 2 -35 0 -50z m88 31 c8 -20 15 -42 14 -48 0 -7 -2
-6 -6 2 -6 15 -45 16 -61 0 -9 -9 -12 -9 -12 0 0 18 33 82 42 82 4 0 15 -16
23 -36z"/>
<path d="M7616 815 c-4 -10 1 -15 14 -15 13 0 18 5 14 15 -4 8 -10 15 -14 15
-4 0 -10 -7 -14 -15z"/>
<path d="M7960 835 c0 -8 9 -15 20 -15 11 0 20 7 20 15 0 8 -9 15 -20 15 -11
0 -20 -7 -20 -15z"/>
<path d="M8057 820 c-3 -13 0 -20 9 -20 15 0 19 26 5 34 -5 3 -11 -3 -14 -14z"/>
<path d="M8256 815 c-4 -10 1 -15 14 -15 13 0 18 5 14 15 -4 8 -10 15 -14 15
-4 0 -10 -7 -14 -15z"/>
<path d="M2418 719 c-21 -12 -26 -107 -6 -127 17 -17 389 -17 406 0 7 7 12 36
12 65 0 41 -4 54 -19 63 -26 13 -370 13 -393 -1z m82 -29 c0 -5 -7 -7 -15 -4
-15 6 -45 -12 -45 -27 0 -19 33 -39 54 -33 16 5 18 4 9 -6 -7 -8 -22 -10 -37
-6 -30 7 -45 48 -26 71 14 17 60 21 60 5z m40 -10 c0 -13 7 -20 20 -20 13 0
20 7 20 20 0 11 5 20 10 20 6 0 10 -18 10 -39 0 -22 -4 -43 -10 -46 -5 -3 -10
3 -10 14 0 14 -6 21 -20 21 -11 0 -20 -6 -20 -14 0 -8 -4 -18 -10 -21 -6 -4
-10 12 -10 39 0 25 5 46 10 46 6 0 10 -9 10 -20z m87 -47 c-2 -16 -4 -5 -4 22
0 28 2 40 4 28 2 -13 2 -35 0 -50z m33 28 c0 -33 4 -40 23 -44 15 -4 12 -5 -8
-4 -28 2 -30 5 -33 45 -2 25 1 42 7 42 6 0 11 -18 11 -39z m102 32 c-38 -5
-38 -24 -1 -34 23 -7 23 -7 -4 -8 -34 -1 -32 -22 4 -32 21 -6 21 -7 -8 -8 -32
-1 -33 0 -33 44 l0 45 38 -2 37 -1 -33 -4z"/>
<path d="M8416 424 c-10 -9 -16 -33 -16 -59 0 -78 -21 -75 518 -75 307 0 480
4 493 10 15 9 19 22 19 63 0 29 -5 58 -12 65 -9 9 -134 12 -499 12 -430 0
-489 -2 -503 -16z m61 -41 l22 -28 1 28 c0 15 5 27 10 27 6 0 10 -20 10 -45 0
-25 -4 -45 -8 -45 -5 0 -19 15 -33 33 l-24 32 -6 -35 c-6 -33 -6 -32 -8 13 0
26 2 47 6 47 4 0 17 -12 30 -27z m101 20 c-16 -2 -28 -11 -28 -19 0 -8 11 -15
28 -15 l27 -2 -27 -4 c-16 -2 -28 -10 -28 -18 0 -8 12 -16 28 -18 25 -4 25 -4
-5 -6 -33 -1 -33 0 -33 44 0 44 0 45 33 44 30 -2 30 -2 5 -6z m58 -18 c8 -31
22 -33 26 -3 5 34 25 32 34 -4 l7 -33 14 33 c7 17 16 32 19 32 6 0 -1 -27 -19
-70 l-9 -25 -15 35 -15 35 -13 -33 c-8 -17 -16 -32 -19 -32 -2 0 -11 20 -19
45 -9 25 -12 45 -7 45 5 0 12 -11 16 -25z m214 6 c-5 -11 -15 -23 -20 -26 -17
-10 -11 -25 10 -25 11 0 20 -4 20 -10 0 -5 -16 -10 -35 -10 -19 0 -35 3 -35 7
0 3 11 21 25 39 l25 33 -27 4 c-22 3 -20 4 10 6 34 1 37 -1 27 -18z m68 12
c-34 -5 -38 -32 -5 -34 l22 -2 -22 -4 c-32 -6 -29 -31 5 -36 25 -4 25 -4 -5
-6 -33 -1 -33 0 -33 44 0 44 0 45 33 44 30 -2 30 -2 5 -6z m102 -30 c8 -21 17
-42 19 -48 2 -5 -2 -4 -10 3 -7 6 -23 12 -35 12 -12 0 -24 -6 -27 -12 -2 -7
-7 -11 -10 -8 -8 7 30 90 41 90 4 0 14 -17 22 -37z m50 -2 c0 -33 4 -40 23
-44 16 -3 13 -5 -10 -6 -33 -1 -33 0 -33 44 0 25 5 45 10 45 6 0 10 -18 10
-39z m120 2 c8 -21 17 -42 19 -48 2 -5 -2 -4 -10 3 -17 15 -51 16 -67 0 -7 -7
-12 -9 -12 -5 0 14 40 87 48 87 4 0 14 -17 22 -37z m72 6 l23 -31 6 34 c6 29
6 26 7 -17 l1 -50 -29 35 -30 34 0 -32 c0 -18 -4 -32 -10 -32 -5 0 -10 20 -10
45 0 53 11 57 42 14z m126 19 c31 -31 3 -78 -47 -78 -18 0 -21 6 -21 45 0 43
1 45 28 45 15 0 33 -5 40 -12z"/>
<path d="M8986 375 c-9 -23 -8 -25 9 -25 17 0 19 9 6 28 -7 11 -10 10 -15 -3z"/>
<path d="M9156 375 c-9 -23 -8 -25 9 -25 17 0 19 9 6 28 -7 11 -10 10 -15 -3z"/>
<path d="M9340 366 c0 -39 6 -43 36 -22 15 12 17 18 8 33 -6 10 -19 19 -28 21
-12 3 -16 -4 -16 -32z"/>
</g>
</svg>
