<?xml version="1.0" standalone="no"?>
<!DOCTYPE svg PUBLIC "-//W3C//DTD SVG 20010904//EN"
 "http://www.w3.org/TR/2001/REC-SVG-20010904/DTD/svg10.dtd">
<svg version="1.0" xmlns="http://www.w3.org/2000/svg"
 width="983.000000pt" height="463.000000pt" viewBox="0 0 983.000000 463.000000"
 preserveAspectRatio="xMidYMid meet">

<g transform="translate(0.000000,463.000000) scale(0.100000,-0.100000)"
fill="#000000" stroke="none">
<path d="M5392 3714 c-17 -12 -22 -25 -22 -63 0 -26 5 -52 12 -59 15 -15 545
-17 568 -2 24 15 20 108 -4 126 -30 22 -522 21 -554 -2z m88 -24 c0 -5 -7 -10
-15 -10 -10 0 -16 -12 -17 -37 l-1 -38 -4 38 c-3 24 -9 37 -19 37 -8 0 -14 5
-14 10 0 6 16 10 35 10 19 0 35 -4 35 -10z m55 -65 c16 0 21 9 26 40 l7 40 -2
-45 c-1 -43 -2 -45 -31 -45 -29 0 -30 2 -31 45 l-2 45 7 -40 c5 -31 10 -40 26
-40z m109 69 c18 -7 22 -39 6 -49 -8 -5 -7 -11 1 -21 7 -8 7 -14 1 -14 -5 0
-12 7 -16 15 -3 8 -10 15 -16 15 -5 0 -10 -7 -10 -15 0 -8 -4 -15 -10 -15 -5
0 -10 20 -10 45 0 47 12 55 54 39z m57 -22 c0 -14 3 -13 16 6 8 12 20 22 26
22 5 0 2 -9 -8 -20 -17 -18 -17 -21 -1 -45 9 -14 12 -25 6 -25 -6 0 -13 7 -16
15 -4 8 -10 15 -15 15 -5 0 -9 -7 -9 -15 0 -8 -4 -15 -10 -15 -5 0 -10 21 -10
46 0 27 4 43 10 39 6 -3 10 -14 11 -23z m167 7 l13 -20 19 23 c22 27 26 12 5
-16 -8 -11 -15 -28 -15 -38 0 -10 -4 -18 -10 -18 -5 0 -10 9 -10 20 0 12 -7
32 -16 45 -9 14 -12 25 -8 25 5 0 15 -9 22 -21z m-60 4 c-16 -2 -28 -9 -28
-14 0 -5 12 -10 28 -10 l27 -2 -27 -4 c-16 -2 -28 -10 -28 -18 0 -8 12 -16 28
-18 22 -3 20 -4 -10 -6 -38 -1 -38 -1 -38 39 0 40 0 40 38 39 30 -2 32 -3 10
-6z"/>
<path d="M5610 3664 c0 -9 7 -14 17 -12 25 5 28 28 4 28 -12 0 -21 -6 -21 -16z"/>
<path d="M5498 3469 c-13 -7 -18 -23 -18 -59 0 -83 -14 -80 355 -80 323 0 324
0 339 22 9 12 16 39 16 60 0 69 6 68 -353 68 -200 0 -329 -4 -339 -11z m42
-58 c0 -33 4 -40 23 -44 16 -3 13 -5 -10 -6 -33 -1 -33 0 -33 44 0 25 5 45 10
45 6 0 10 -18 10 -39z m98 32 c-34 -5 -38 -32 -5 -34 l22 -2 -22 -4 c-32 -6
-29 -31 5 -36 20 -4 18 -4 -8 -3 -34 1 -35 2 -38 44 l-3 42 38 -1 c30 -2 32
-3 11 -6z m105 -25 c6 -39 -7 -58 -39 -58 -22 0 -24 4 -24 45 0 43 1 45 29 45
25 0 29 -4 34 -32z m87 -8 c23 -44 26 -60 8 -42 -16 16 -50 15 -67 0 -12 -11
-13 -9 -6 7 4 11 12 32 17 48 13 37 24 34 48 -13z m72 9 l23 -31 6 34 c6 29 6
27 7 -17 l1 -50 -29 35 -29 35 -1 -33 c0 -20 -4 -31 -10 -27 -13 8 -13 85 0
85 5 0 20 -14 32 -31z m136 19 c36 -36 -11 -93 -57 -69 -39 21 -21 81 24 81
12 0 26 -5 33 -12z m67 -15 l24 -28 1 28 c0 15 5 27 10 27 6 0 10 -20 10 -45
0 -25 -4 -45 -8 -45 -5 0 -19 15 -33 33 l-24 32 -6 -35 c-6 -33 -6 -32 -8 13
0 26 1 47 4 47 3 0 17 -12 30 -27z"/>
<path d="M5693 3428 c2 -7 10 -13 17 -13 7 0 15 6 18 13 2 7 -5 12 -18 12 -13
0 -20 -5 -17 -12z"/>
<path d="M5690 3384 c0 -9 7 -14 17 -12 25 5 28 28 4 28 -12 0 -21 -6 -21 -16z"/>
<path d="M5796 3415 c-9 -23 -8 -25 9 -25 17 0 19 9 6 28 -7 11 -10 10 -15 -3z"/>
<path d="M5982 3428 c-30 -30 9 -69 44 -43 15 11 17 17 8 32 -14 23 -36 27
-52 11z"/>
<path d="M3770 3340 c-13 -13 -20 -33 -20 -59 0 -73 -12 -71 389 -71 264 0
360 3 369 12 18 18 15 103 -4 122 -13 14 -61 16 -365 16 -336 0 -350 -1 -369
-20z m74 -16 c28 -11 19 -44 -13 -50 -17 -4 -32 -14 -34 -23 -3 -9 -5 5 -6 32
-1 49 10 58 53 41z m112 -19 c12 -18 11 -24 -2 -43 -19 -27 -60 -29 -74 -3
-14 27 -13 37 6 56 21 21 53 16 70 -10z m84 15 c13 -8 13 -13 2 -30 -10 -17
-10 -25 -1 -36 8 -10 9 -14 0 -14 -6 0 -14 7 -17 15 -8 21 -32 19 -37 -2 -3
-10 -5 3 -6 30 -1 42 1 47 22 47 12 0 29 -5 37 -10z m78 3 c-13 -3 -18 -16
-20 -46 l-1 -42 -4 42 c-3 29 -9 43 -21 46 -9 3 1 5 23 5 22 0 32 -2 23 -5z
m67 -68 c16 0 21 9 26 40 l7 40 -2 -39 c-1 -42 -22 -64 -50 -53 -12 5 -16 18
-15 49 l2 43 6 -40 c5 -31 10 -40 26 -40z m130 66 c3 -6 -7 -9 -22 -8 -24 2
-28 -2 -31 -26 -4 -30 21 -48 41 -28 9 9 8 14 -3 21 -13 8 -12 10 3 10 28 0
18 -44 -11 -48 -43 -6 -71 45 -40 76 14 14 54 16 63 3z m83 -18 c5 -16 13 -37
17 -48 7 -16 6 -18 -6 -7 -7 6 -23 12 -35 12 -12 0 -24 -6 -27 -12 -2 -7 -7
-11 -9 -8 -8 7 30 90 41 90 5 0 14 -12 19 -27z m52 -12 c0 -36 3 -40 28 -44
22 -3 20 -4 -10 -6 l-38 -1 0 45 c0 25 5 45 10 45 6 0 10 -18 10 -39z"/>
<path d="M3810 3300 c0 -11 4 -20 9 -20 13 0 32 26 24 33 -13 14 -33 6 -33
-13z"/>
<path d="M3889 3299 c-9 -17 -8 -25 4 -37 29 -28 73 12 47 43 -17 21 -37 19
-51 -6z"/>
<path d="M3990 3300 c0 -15 5 -20 18 -18 9 2 17 10 17 18 0 8 -8 16 -17 18
-13 2 -18 -3 -18 -18z"/>
<path d="M4367 3291 c-3 -14 0 -21 9 -21 16 0 18 9 5 28 -6 10 -10 9 -14 -7z"/>
<path d="M5522 3068 c-7 -7 -12 -33 -12 -59 0 -72 16 -79 172 -79 115 0 130 2
148 20 22 22 27 78 10 111 -10 17 -23 19 -158 19 -102 0 -152 -4 -160 -12z
m63 -83 c16 0 21 9 26 40 l7 40 -2 -45 c-1 -43 -2 -45 -31 -45 -29 0 -30 2
-31 45 l-2 45 7 -40 c5 -31 10 -40 26 -40z m118 40 c22 -47 21 -58 -3 -43 -16
10 -24 10 -41 -1 -20 -12 -21 -11 -14 6 4 10 12 30 17 46 13 36 21 34 41 -8z
m97 25 c0 -5 -9 -10 -20 -10 -28 0 -25 -20 3 -21 l22 -2 -22 -4 c-32 -6 -29
-31 5 -36 22 -3 20 -4 -10 -6 l-38 -1 0 45 c0 43 1 45 30 45 17 0 30 -4 30
-10z"/>
<path d="M5675 3020 c-8 -13 -1 -24 14 -19 6 3 7 10 2 18 -6 10 -10 10 -16 1z"/>
<path d="M7447 2977 c-26 -18 -33 -81 -13 -112 l16 -25 535 0 c596 0 565 -4
565 71 0 26 -7 46 -20 59 -19 19 -33 20 -543 20 -404 0 -527 -3 -540 -13z m71
-31 c-11 -8 -18 -26 -18 -45 0 -17 -4 -31 -10 -31 -5 0 -10 16 -10 35 0 19 -4
35 -10 35 -5 0 -10 5 -10 10 0 6 17 10 38 10 33 -1 35 -2 20 -14z m102 -31 c0
-25 -4 -45 -10 -45 -5 0 -10 9 -10 20 0 13 -7 20 -20 20 -13 0 -20 -7 -20 -20
0 -11 -4 -20 -10 -20 -5 0 -10 18 -10 40 0 22 5 40 10 40 6 0 10 -7 10 -15 0
-22 37 -18 43 5 9 34 17 22 17 -25z m199 27 c12 -22 -3 -42 -31 -42 -10 0 -18
-7 -18 -15 0 -8 -4 -15 -10 -15 -11 0 -14 73 -3 83 13 14 53 6 62 -11z m101
-33 c0 -21 -4 -39 -10 -39 -5 0 -10 9 -10 20 0 30 -47 28 -53 -2 -2 -13 -4 -3
-4 22 -1 25 1 37 4 28 7 -27 53 -24 53 3 0 11 5 17 10 14 6 -3 10 -24 10 -46z
m30 6 c0 -25 -4 -45 -10 -45 -5 0 -10 20 -10 45 0 25 5 45 10 45 6 0 10 -20
10 -45z m97 -22 c-2 -16 -4 -5 -4 22 0 28 2 40 4 28 2 -13 2 -35 0 -50z m81
58 c21 -13 10 -46 -16 -49 -12 -2 -22 -10 -22 -18 0 -8 -4 -14 -10 -14 -5 0
-10 20 -10 45 0 40 2 45 23 45 12 0 28 -4 35 -9z m91 -9 c12 -22 -3 -42 -31
-42 -10 0 -18 -7 -18 -15 0 -8 -4 -15 -10 -15 -11 0 -14 73 -3 83 13 14 53 6
62 -11z m28 -49 c-2 -16 -4 -5 -4 22 0 28 2 40 4 28 2 -13 2 -35 0 -50z m64
35 l24 -33 6 35 c6 33 6 32 8 -12 0 -27 -2 -48 -6 -48 -4 0 -17 12 -30 28
l-22 27 -1 -27 c0 -16 -4 -28 -10 -28 -5 0 -10 20 -10 45 0 25 4 45 8 45 5 0
19 -15 33 -32z m102 14 c-13 -2 -23 -8 -23 -13 0 -5 10 -10 23 -10 l22 -2 -22
-4 c-32 -6 -29 -31 5 -36 22 -3 20 -4 -10 -6 l-38 -1 0 43 c0 44 0 44 33 38
26 -4 28 -6 10 -9z m92 9 c3 -5 -7 -11 -22 -13 l-28 -3 33 -18 c37 -20 40 -32
13 -46 -13 -7 -24 -6 -37 3 -17 13 -16 14 9 9 35 -7 36 14 2 27 -38 15 -31 46
12 49 6 1 14 -3 18 -8z m-827 -8 c-16 -2 -28 -9 -28 -14 0 -5 12 -10 28 -10
l27 -2 -27 -4 c-16 -2 -28 -10 -28 -18 0 -8 12 -16 28 -18 25 -4 25 -4 -5 -6
-32 -1 -33 0 -33 39 0 39 1 40 33 39 30 -2 30 -2 5 -6z m302 -27 c0 -30 4 -35
28 -39 22 -3 20 -4 -10 -6 -38 -1 -38 -1 -38 39 0 22 5 40 10 40 6 0 10 -15
10 -34z"/>
<path d="M7770 2924 c0 -9 7 -14 17 -12 25 5 28 28 4 28 -12 0 -21 -6 -21 -16z"/>
<path d="M8090 2924 c0 -9 7 -14 17 -12 25 5 28 28 4 28 -12 0 -21 -6 -21 -16z"/>
<path d="M8170 2924 c0 -9 7 -14 17 -12 25 5 28 28 4 28 -12 0 -21 -6 -21 -16z"/>
<path d="M6499 2949 c-17 -17 -20 -30 -16 -66 3 -25 11 -49 18 -54 8 -5 94 -9
191 -9 200 0 208 3 208 71 0 26 -7 46 -20 59 -18 18 -33 20 -190 20 -160 0
-171 -1 -191 -21z m28 -76 c-2 -16 -4 -5 -4 22 0 28 2 40 4 28 2 -13 2 -35 0
-50z m67 35 l26 -33 0 33 c0 17 5 32 10 32 11 0 14 -73 3 -84 -4 -4 -20 8 -35
26 l-27 33 -1 -33 c0 -20 -4 -31 -10 -27 -13 8 -13 85 -1 85 5 0 21 -15 35
-32z m133 5 c13 -19 12 -24 -7 -43 -12 -12 -31 -20 -43 -18 -18 2 -23 11 -25
46 -3 43 -3 43 29 40 19 -2 37 -12 46 -25z m43 -18 c0 -25 -4 -45 -10 -45 -5
0 -10 20 -10 45 0 25 5 45 10 45 6 0 10 -20 10 -45z m81 -3 c10 -23 14 -42 9
-42 -6 0 -10 5 -10 10 0 14 -43 13 -58 -2 -16 -16 -15 -6 4 42 9 23 21 39 27
37 6 -2 19 -22 28 -45z"/>
<path d="M6670 2894 c0 -28 4 -35 16 -32 9 2 22 11 28 21 9 15 7 21 -8 33 -30
21 -36 17 -36 -22z"/>
<path d="M6817 2913 c-12 -12 -7 -33 8 -33 17 0 19 9 7 28 -5 7 -11 9 -15 5z"/>
<path d="M6700 2311 c-17 -33 -12 -89 10 -111 19 -19 33 -20 375 -20 342 0
356 1 375 20 22 22 27 78 10 111 -10 18 -25 19 -385 19 -360 0 -375 -1 -385
-19z m37 -68 c-2 -16 -4 -5 -4 22 0 28 2 40 4 28 2 -13 2 -35 0 -50z m64 35
l24 -33 6 35 c6 33 6 32 8 -12 0 -27 -2 -48 -6 -48 -4 0 -17 12 -30 28 l-22
27 -1 -27 c0 -16 -4 -28 -10 -28 -5 0 -10 20 -10 45 0 25 4 45 8 45 5 0 19
-15 33 -32z m113 22 c18 -6 26 -17 26 -33 0 -31 -18 -47 -52 -47 -27 0 -28 2
-28 45 0 49 7 53 54 35z m120 -6 c19 -18 20 -28 6 -55 -20 -37 -80 -18 -80 26
0 42 44 59 74 29z m96 -16 c0 20 4 31 10 27 15 -9 13 -85 -2 -85 -7 0 -23 15
-35 33 l-23 32 0 -33 c0 -17 -4 -32 -10 -32 -11 0 -14 73 -3 84 4 4 20 -8 35
-26 l27 -33 1 33z m165 22 c3 -5 -3 -10 -14 -10 -27 0 -27 -13 1 -25 29 -13
33 -31 10 -44 -14 -7 -24 -7 -38 3 -17 13 -16 14 9 9 35 -7 36 14 2 27 -28 11
-31 20 -13 38 15 15 35 16 43 2z m42 -57 c-2 -16 -4 -5 -4 22 0 28 2 40 4 28
2 -13 2 -35 0 -50z m-129 50 c-16 -2 -28 -9 -28 -14 0 -5 12 -10 28 -10 l27
-2 -27 -4 c-16 -2 -28 -10 -28 -18 0 -8 12 -16 28 -18 22 -3 20 -4 -10 -6 -38
-1 -38 -1 -38 39 0 40 0 40 38 39 30 -2 32 -3 10 -6z m215 -28 c9 -20 17 -37
17 -38 0 -1 -19 -2 -43 -2 l-43 0 15 37 c20 47 33 48 54 3z"/>
<path d="M6880 2260 c0 -23 5 -30 19 -30 20 0 37 32 26 50 -3 5 -15 10 -26 10
-14 0 -19 -7 -19 -30z"/>
<path d="M6980 2285 c-19 -23 -8 -50 20 -50 16 0 26 6 28 18 4 18 -14 47 -28
47 -4 0 -13 -7 -20 -15z"/>
<path d="M7386 2265 c-3 -9 0 -15 9 -15 16 0 20 16 6 24 -5 3 -11 -1 -15 -9z"/>
<path d="M7553 1520 c-29 -12 -42 -74 -22 -109 l15 -26 379 -3 c348 -2 381 -1
393 15 19 27 15 90 -8 113 -19 19 -33 20 -377 19 -197 0 -368 -4 -380 -9z
m254 -27 c15 -6 13 -9 -12 -14 l-30 -6 28 -13 c44 -21 32 -64 -15 -52 -28 7
-21 20 7 14 15 -2 25 0 25 7 0 6 -11 16 -25 21 -26 10 -34 35 -12 43 6 3 13 6
14 6 1 1 10 -2 20 -6z m180 -20 c3 -8 1 -19 -5 -25 -8 -8 -9 -15 -1 -25 8 -9
8 -13 0 -13 -6 0 -14 7 -17 15 -8 21 -32 19 -37 -2 -3 -10 -5 3 -6 28 -1 45
-1 46 30 41 17 -2 33 -11 36 -19z m200 -40 c-2 -16 -4 -5 -4 22 0 28 2 40 4
28 2 -13 2 -35 0 -50z m-567 53 c0 -2 6 -19 14 -37 l14 -34 -42 0 -42 0 14 38
c8 20 21 37 29 37 7 0 13 -2 13 -4z m62 -28 c2 -25 8 -33 23 -33 15 0 22 9 27
35 l6 35 -1 -40 c-2 -34 -5 -40 -26 -43 -29 -4 -51 20 -51 55 0 35 18 27 22
-9z m216 25 c-13 -3 -18 -15 -18 -39 0 -19 -4 -34 -10 -34 -5 0 -10 15 -10 34
0 19 -6 37 -12 39 -7 3 5 5 27 5 22 0 32 -2 23 -5z m162 3 c0 -2 6 -19 14 -37
l14 -34 -42 0 -42 0 14 38 c8 20 21 37 29 37 7 0 13 -2 13 -4z m60 -30 c0 -30
4 -35 28 -39 22 -3 20 -4 -10 -6 -38 -1 -38 -1 -38 39 0 22 5 40 10 40 6 0 10
-15 10 -34z m156 -1 c7 -19 14 -36 14 -37 0 -2 -18 -3 -40 -3 -22 0 -40 1 -40
3 0 15 32 72 40 72 6 0 18 -16 26 -35z"/>
<path d="M7940 1464 c0 -9 7 -14 17 -12 25 5 28 28 4 28 -12 0 -21 -6 -21 -16z"/>
<path d="M7595 1460 c-8 -13 -1 -24 14 -19 6 3 7 10 2 18 -6 10 -10 10 -16 1z"/>
<path d="M8036 1455 c-3 -9 0 -15 9 -15 16 0 20 16 6 24 -5 3 -11 -1 -15 -9z"/>
<path d="M8236 1455 c-3 -9 0 -15 9 -15 16 0 20 16 6 24 -5 3 -11 -1 -15 -9z"/>
<path d="M8390 1051 c-5 -11 -10 -38 -10 -60 0 -73 -17 -71 520 -71 544 0 520
-4 520 79 0 26 -5 52 -12 59 -9 9 -136 12 -510 12 -481 0 -498 -1 -508 -19z
m67 -38 l22 -28 1 28 c0 15 5 27 10 27 6 0 10 -20 10 -45 0 -25 -3 -45 -6 -45
-3 0 -17 14 -32 32 l-27 32 -6 -35 c-6 -32 -6 -31 -8 14 0 26 2 47 6 47 4 0
17 -12 30 -27z m101 20 c-16 -2 -28 -11 -28 -19 0 -8 11 -15 28 -15 l27 -2
-27 -4 c-16 -2 -28 -10 -28 -18 0 -8 12 -16 28 -18 25 -4 25 -4 -5 -6 -33 -1
-33 0 -33 44 0 44 0 45 33 44 30 -2 30 -2 5 -6z m73 -43 c4 0 10 11 13 25 4
14 11 25 16 25 5 0 12 -11 16 -25 8 -32 20 -32 28 1 4 15 9 24 12 21 7 -7 -17
-87 -27 -87 -4 0 -10 14 -14 30 -4 17 -10 30 -15 30 -5 0 -11 -13 -15 -30 -9
-40 -20 -38 -33 9 -15 47 -14 66 1 29 6 -16 14 -28 18 -28z m209 44 c0 -3 -9
-18 -21 -32 l-21 -27 21 -3 c31 -5 25 -22 -7 -22 -41 0 -44 8 -16 46 l25 33
-28 4 c-23 3 -22 4 10 6 20 0 37 -2 37 -5z m62 -1 c-38 -5 -38 -24 -1 -34 23
-7 23 -7 -4 -8 -34 -1 -32 -22 4 -32 21 -6 21 -7 -8 -8 -32 -1 -33 0 -33 44
l0 45 38 -2 37 -1 -33 -4z m103 -33 c10 -22 15 -43 12 -47 -4 -3 -7 -1 -7 5 0
16 -60 15 -61 0 0 -8 -2 -9 -5 -2 -6 13 23 84 35 84 4 0 16 -18 26 -40z m73
-43 c24 -4 24 -4 -5 -6 l-33 -1 2 48 1 47 4 -42 c4 -36 7 -42 31 -46z m97 47
c8 -20 15 -42 14 -48 0 -7 -2 -6 -6 2 -6 15 -63 16 -63 0 0 -6 -3 -8 -7 -5 -8
8 27 87 38 87 5 0 16 -16 24 -36z m72 9 l22 -28 1 28 c0 15 5 27 10 27 6 0 10
-20 10 -45 0 -25 -3 -45 -6 -45 -3 0 -17 14 -32 32 l-27 32 -6 -35 c-6 -32 -6
-31 -8 14 0 26 2 47 6 47 4 0 17 -12 30 -27z m131 15 c28 -28 -5 -78 -50 -78
-15 0 -18 9 -18 45 0 43 1 45 28 45 15 0 33 -5 40 -12z"/>
<path d="M8970 995 c0 -8 5 -15 10 -15 6 0 10 7 10 15 0 8 -4 15 -10 15 -5 0
-10 -7 -10 -15z"/>
<path d="M9140 995 c0 -8 5 -15 10 -15 6 0 10 7 10 15 0 8 -4 15 -10 15 -5 0
-10 -7 -10 -15z"/>
<path d="M9320 995 c0 -30 3 -36 16 -31 9 3 20 6 25 6 6 0 9 12 7 28 -2 19 -9
28 -25 30 -20 3 -23 -1 -23 -33z"/>
</g>
</svg>
